<?xml version="1.0" encoding="UTF-8" standalone="no"?>
<!-- Created with Inkscape (http://www.inkscape.org/) -->

<svg
   xmlns:dc="http://purl.org/dc/elements/1.1/"
   xmlns:cc="http://creativecommons.org/ns#"
   xmlns:rdf="http://www.w3.org/1999/02/22-rdf-syntax-ns#"
   xmlns:svg="http://www.w3.org/2000/svg"
   xmlns="http://www.w3.org/2000/svg"
   xmlns:sodipodi="http://sodipodi.sourceforge.net/DTD/sodipodi-0.dtd"
   xmlns:inkscape="http://www.inkscape.org/namespaces/inkscape"
   width="64"
   height="64"
   viewBox="0 0 64 64"
   id="svg2"
   version="1.1"
   inkscape:version="0.92.5 (2060ec1f9f, 2020-04-08)"
   inkscape:export-filename="/home/djrm/Projects/godot/tools/editor/icons/icon_camera.png"
   inkscape:export-xdpi="90"
   inkscape:export-ydpi="90"
   sodipodi:docname="navigation_camera_2d_icon.svg">
  <defs
     id="defs4">
    <clipPath
       clipPathUnits="userSpaceOnUse"
       id="clipPath4253">
      <path
         style="fill:#ffffff;fill-opacity:1;stroke:none;stroke-width:4;stroke-linecap:round;stroke-linejoin:round;stroke-miterlimit:4;stroke-dasharray:none;stroke-opacity:1"
         d="m 16.458984,1024.37 a 12.000027,12.000027 0 0 0 -3.564453,0.4004 12.000027,12.000027 0 0 0 -8.4863279,14.6973 12.000027,12.000027 0 0 0 14.6972659,8.4863 12.000027,12.000027 0 0 0 8.486328,-14.6973 12.000027,12.000027 0 0 0 -11.132813,-8.8867 z M 16.25,1029.8212 a 6.5451717,6.5451717 0 0 1 6.072266,4.8476 6.5451717,6.5451717 0 0 1 -4.628907,8.0157 6.5451717,6.5451717 0 0 1 -8.0156246,-4.6289 6.5451717,6.5451717 0 0 1 4.6289066,-8.0157 6.5451717,6.5451717 0 0 1 1.943359,-0.2187 z"
         id="path4255"
         inkscape:connector-curvature="0" />
    </clipPath>
    <clipPath
       clipPathUnits="userSpaceOnUse"
       id="clipPath4199">
      <path
         inkscape:connector-curvature="0"
         id="path4201"
         d="m 16.5,1025.8622 a 11.8125,10.499999 0 0 0 -11.8125001,10.5 11.8125,10.499999 0 0 0 11.8125001,10.5 11.8125,10.499999 0 0 0 11.8125,-10.5 11.8125,10.499999 0 0 0 -11.8125,-10.5 z m -3.375,3 a 3.375,2.9999997 0 0 1 3.375,3 3.375,2.9999997 0 0 1 -3.375,3 3.375,2.9999997 0 0 1 -3.3750001,-3 3.375,2.9999997 0 0 1 3.3750001,-3 z"
         style="opacity:1;fill:#ffffff;fill-opacity:1;stroke:none;stroke-width:2;stroke-linecap:round;stroke-linejoin:miter;stroke-miterlimit:4;stroke-dasharray:none;stroke-dashoffset:0;stroke-opacity:1" />
    </clipPath>
    <clipPath
       id="clipPath4392"
       clipPathUnits="userSpaceOnUse">
      <path
         inkscape:connector-curvature="0"
         id="path4394"
         d="m 8.072266,1041.3622 a 5,5 0 0 0 -3.607422,1.4648 5,5 0 0 0 0,7.0704 5,5 0 0 0 7.070312,0 l -1.416015,-1.4161 A 3,3 0 0 1 8,1049.3622 a 3,3 0 0 1 -3,-3 3,3 0 0 1 3,-3 3,3 0 0 1 2.119141,0.8809 l 1.416015,-1.4161 a 5,5 0 0 0 -3.46289,-1.4648 z"
         style="fill:#e0e0e0;fill-opacity:1;stroke:none;stroke-width:2;stroke-linecap:round;stroke-linejoin:round;stroke-miterlimit:4;stroke-dasharray:none;stroke-opacity:1" />
    </clipPath>
    <clipPath
       clipPathUnits="userSpaceOnUse"
       id="clipPath4196">
      <path
         style="opacity:1;fill:#ffffff;fill-opacity:1;stroke:none;stroke-width:2;stroke-linecap:round;stroke-linejoin:miter;stroke-miterlimit:4;stroke-dasharray:none;stroke-dashoffset:0;stroke-opacity:1"
         d="m 8.0624999,1025.8622 a 3.375,2.9999997 0 0 0 -3.375,3 3.375,2.9999997 0 0 0 1.6875,2.5957 v 9.8115 a 3.375,2.9999997 0 0 0 -1.6875,2.5928 3.375,2.9999997 0 0 0 3.375,3 3.375,2.9999997 0 0 0 3.3750001,-3 3.375,2.9999997 0 0 0 -1.6875001,-2.5957 v -8.7832 l 11.9311511,10.6054 a 3.375,2.9999997 0 0 0 -0.118651,0.7735 3.375,2.9999997 0 0 0 3.375,3 3.375,2.9999997 0 0 0 3.375,-3 3.375,2.9999997 0 0 0 -3.375,-3 3.375,2.9999997 0 0 0 -0.873413,0.1025 L 12.13623,1030.3622 h 9.884399 a 3.375,2.9999997 0 0 0 2.916871,1.5 3.375,2.9999997 0 0 0 3.375,-3 3.375,2.9999997 0 0 0 -3.375,-3 3.375,2.9999997 0 0 0 -2.920166,1.5 H 10.97937 a 3.375,2.9999997 0 0 0 -2.9168701,-1.5 z"
         id="path4198"
         inkscape:connector-curvature="0" />
    </clipPath>
  </defs>
  <sodipodi:namedview
     id="base"
     pagecolor="#ffffff"
     bordercolor="#666666"
     borderopacity="1.0"
     inkscape:pageopacity="0.0"
     inkscape:pageshadow="2"
     inkscape:zoom="7.9999998"
     inkscape:cx="44.739995"
     inkscape:cy="23.838502"
     inkscape:document-units="px"
     inkscape:current-layer="layer1"
     showgrid="true"
     units="px"
     inkscape:snap-bbox="true"
     inkscape:bbox-paths="true"
     inkscape:bbox-nodes="true"
     inkscape:snap-bbox-edge-midpoints="false"
     inkscape:snap-bbox-midpoints="false"
     inkscape:snap-object-midpoints="false"
     inkscape:snap-center="true"
     inkscape:window-width="1920"
     inkscape:window-height="1200"
     inkscape:window-x="0"
     inkscape:window-y="0"
     inkscape:window-maximized="1"
     showguides="true"
     inkscape:document-rotation="0">
    <inkscape:grid
       type="xygrid"
       id="grid3336"
       empspacing="4" />
  </sodipodi:namedview>
  <metadata
     id="metadata7">
    <rdf:RDF>
      <cc:Work
         rdf:about="">
        <dc:format>image/svg+xml</dc:format>
        <dc:type
           rdf:resource="http://purl.org/dc/dcmitype/StillImage" />
        <dc:title></dc:title>
      </cc:Work>
    </rdf:RDF>
  </metadata>
  <g
     inkscape:label="Layer 1"
     inkscape:groupmode="layer"
     id="layer1"
     transform="translate(0,-988.3622)">
    <path
       style="fill:#a5b7f3;fill-opacity:1;stroke:none;stroke-width:11.24993515;stroke-linecap:round;stroke-linejoin:round"
       d="m 39.5,990.6122 c -5.884378,0 -10.769406,4.54725 -11.206055,10.4152 -2.066334,-1.8731 -4.754863,-2.9122 -7.543945,-2.9152 -6.213218,0 -11.2500356,5.0366 -11.25,11.25 0.00652,4.7618 3.010441,9.0038 7.5,10.5911 v 4.4089 c 0,2.0775 1.672464,3.75 3.75,3.75 h 22.5 c 2.077537,0 3.75,-1.6725 3.75,-3.75 v -3.75 l 11.25,7.5 v -18.75 l -11.25,7.5 v -6.6356 c 2.380706,-2.1293 3.74406,-5.1705 3.75,-8.3644 -3.7e-5,-6.21337 -5.036812,-11.25 -11.25,-11.25 z"
       id="path4272"
       inkscape:connector-curvature="0"
       sodipodi:nodetypes="cccccssssccccccc" />
    <path
       style="opacity:1;fill:#a5b7f3;fill-opacity:1;stroke:none;stroke-width:7.5;stroke-linecap:butt;stroke-linejoin:bevel;stroke-miterlimit:4;stroke-dasharray:none;stroke-dashoffset:0;stroke-opacity:1"
       d="M 58.25,1039.3622 47,1028.1122 v 7.5 H 17 v -7.5 l -11.25,11.25 11.25,11.25 v -7.5 h 30 v 7.5 z"
       id="rect4157"
       inkscape:connector-curvature="0"
       sodipodi:nodetypes="ccccccccccc" />
  </g>
</svg>
